<svg width="360" height="120" viewBox="0 0 360 120" fill="none" xmlns="http://www.w3.org/2000/svg">
<rect width="360" height="120" fill="#C71C36"/>
<rect width="360" height="120" stroke="white"/>
<path fill-rule="evenodd" clip-rule="evenodd" d="M137.542 34.6665L137.757 36.1915C130.903 50.0538 139.643 48.9253 139.643 48.9253L140.747 48.727L140.915 49.0625C157.153 47.2325 166.031 55.6353 166.031 55.6353C167.212 35.7493 137.542 34.6665 137.542 34.6665Z" fill="#F8B829"/>
<path d="M127.345 81.4995C126.655 86.0745 130.412 88.728 131.01 87.264C132.666 85.1137 133.249 85.739 134.077 82.506C134.379 82.1045 134.729 81.7409 135.119 81.4232C135.958 80.5591 136.765 79.6746 137.542 78.7697C139.833 76.1916 141.791 73.3379 143.369 70.2755C145.119 67.1833 145.757 63.59 145.178 60.0885C144.551 58.3172 143.656 56.6512 142.525 55.1475C142.18 54.3603 142.023 53.5043 142.065 52.6465C142.027 51.3633 141.64 50.1143 140.946 49.0322C140.587 48.6477 140.315 48.1922 140.146 47.6954C139.976 47.1987 139.915 46.6721 139.965 46.15C140.164 44.991 140.164 43.8472 140.333 42.6882C140.439 40.5225 140.04 38.3617 139.167 36.3747C139.167 36.3747 138.094 34.4837 137.143 34.9565C135.451 33.8906 133.483 33.3363 131.48 33.3606C129.477 33.385 127.524 33.987 125.858 35.0937C125.858 35.0937 103.901 49.0475 123.696 75.857C123.098 79.334 125.229 82.9177 126.885 85.2967" fill="#005D86"/>
<path d="M137.45 50.8928L134.475 37.4118C134.475 37.4118 132.727 32.2268 128.127 38.7691L127.361 37.7626C123.129 43.7253 117.394 50.8776 118.667 58.6246C118.852 60.0545 119.348 61.4271 120.122 62.6465C120.895 63.866 121.926 64.903 123.144 65.6853C124.938 66.9246 127.111 67.5036 129.288 67.3227C131.465 67.1418 133.511 66.2123 135.073 64.6941C137.465 62.7116 139.413 58.6856 137.45 50.8928Z" fill="white"/>
<path fill-rule="evenodd" clip-rule="evenodd" d="M140.915 49.1083C140.915 49.1083 155.114 46.9123 166.031 55.681C166.031 55.681 155.758 42.2763 139.382 44.762C139.397 44.762 138.217 48.056 140.915 49.1083Z" fill="#F19320"/>
<path d="M166.031 55.6811C166.32 52.222 165.44 48.766 163.532 45.86C163.379 45.6618 162.198 48.2238 162.183 48.4526C162.12 49.5211 162.382 50.5838 162.934 51.5026C163.716 52.9361 165.617 54.1103 166.001 55.6505" fill="#E95253"/>
<path d="M112.533 75.0488C114.54 75.8084 116.73 75.9519 118.82 75.4606C121.749 75.8571 123.282 76.7721 126.778 77.1686C131.056 77.1686 135.303 76.7111 139.551 76.3146C140.931 76.1926 143.997 76.0248 145.163 77.1076C145.837 77.7328 145.638 79.4256 145.653 80.3101C143.119 79.3489 140.45 78.783 137.741 78.6326C134.675 78.6326 131.501 78.7698 128.388 78.7393C126.265 78.7455 124.145 78.5618 122.055 78.1903C120.108 77.8243 118.191 77.3211 116.244 76.9246C114.833 76.6196 113.116 76.3756 112.533 75.0488Z" fill="#9B5F48"/>
<path d="M139.873 77.794C139.873 78.282 139.443 79.319 139.045 79.319C138.646 79.319 138.217 78.2972 138.217 77.794V76.0707C138.217 75.5827 138.523 75.0947 138.922 75.0947C139.163 75.1314 139.385 75.2475 139.552 75.4245C139.719 75.6015 139.821 75.8291 139.842 76.0707L139.873 77.794Z" fill="#969595"/>
<path d="M138.217 78.0377C138.217 78.419 137.91 79.212 137.588 79.212C137.266 79.212 136.959 78.419 136.959 78.0377V76.6805C136.959 76.2992 137.189 75.918 137.511 75.918C137.696 75.9465 137.864 76.0384 137.988 76.1777C138.111 76.317 138.181 76.4949 138.186 76.6805L138.217 78.0377Z" fill="#838383"/>
<path d="M123.006 77.794C123.006 78.282 123.435 79.319 123.834 79.319C124.233 79.319 124.662 78.2972 124.662 77.794V76.0707C124.662 75.5827 124.355 75.0947 123.957 75.0947C123.716 75.1314 123.494 75.2475 123.327 75.4245C123.16 75.6015 123.058 75.8291 123.037 76.0707L123.006 77.794Z" fill="#969595"/>
<path d="M124.662 78.0377C124.662 78.419 124.969 79.212 125.291 79.212C125.613 79.212 125.919 78.419 125.919 78.0377V76.6805C125.919 76.2992 125.689 75.918 125.367 75.918C125.183 75.9465 125.014 76.0384 124.891 76.1777C124.768 76.317 124.698 76.4949 124.693 76.6805L124.662 78.0377Z" fill="#838383"/>
<path d="M140.578 44.4571C140.946 43.5878 141.621 40.8886 139.75 36.2373C139.413 35.5206 138.569 33.8583 136.775 34.7123C136.515 35.1088 140.011 37.2896 139.29 44.9756C139.29 44.9756 138.385 48.1933 140.915 49.0931C140.539 48.3019 140.345 47.4369 140.348 46.5616C140.294 45.852 140.372 45.1387 140.578 44.4571ZM140.409 44.7621C140.409 44.7621 140.409 44.7621 140.425 44.7621H140.409Z" fill="#003B55"/>
<path d="M137.542 41.6207C138.217 45.2197 136.407 47.2632 132.819 47.309C130.059 47.309 126.042 46.7295 125.659 43.3745C125.337 40.4617 127.192 36.512 130.167 35.6275C134.291 34.377 136.898 38.0827 137.557 41.6207H137.542Z" fill="#F8B829"/>
<path d="M135.349 41.3616C135.491 41.7852 135.521 42.2378 135.436 42.6761C135.351 43.1145 135.155 43.5239 134.866 43.8652C134.577 44.2064 134.204 44.4681 133.784 44.6252C133.364 44.7823 132.91 44.8295 132.467 44.7624C130.719 44.7624 128.281 44.3506 128.127 42.2309C128.045 41.2667 128.273 40.3015 128.777 39.474C129.281 38.6465 130.036 37.9993 130.933 37.6254C133.402 36.9391 134.935 39.1504 135.303 41.3006L135.349 41.3616Z" fill="#005D86"/>
<path fill-rule="evenodd" clip-rule="evenodd" d="M134 40.9039C134 41.4721 133.773 42.0171 133.369 42.4189C132.965 42.8207 132.417 43.0465 131.846 43.0465C131.274 43.0465 130.726 42.8207 130.322 42.4189C129.918 42.0171 129.691 41.4721 129.691 40.9039C129.691 40.3356 129.918 39.7906 130.322 39.3888C130.726 38.987 131.274 38.7612 131.846 38.7612C132.417 38.7612 132.965 38.987 133.369 39.3888C133.773 39.7906 134 40.3356 134 40.9039Z" fill="#151410"/>
<path fill-rule="evenodd" clip-rule="evenodd" d="M132.145 39.5468C132.145 39.9281 131.807 39.5468 131.807 39.5468C131.807 39.5468 132.145 39.1503 132.145 39.5468Z" fill="white"/>
<path fill-rule="evenodd" clip-rule="evenodd" d="M130.933 39.5314C130.719 39.5314 130.673 39.7602 130.642 40.0042C130.584 40.026 130.532 40.0605 130.489 40.1051C130.447 40.1497 130.415 40.2032 130.396 40.2617C130.376 40.3202 130.371 40.3823 130.379 40.4432C130.387 40.5042 130.409 40.5626 130.443 40.6142C130.443 40.6142 131.485 39.6382 131.562 39.6992C131.475 39.6288 131.374 39.5775 131.266 39.5486C131.157 39.5197 131.044 39.5138 130.933 39.5314Z" fill="white"/>
<path d="M165.203 74.7134C165.324 74.7105 165.444 74.7336 165.555 74.781C165.666 74.8283 165.766 74.8989 165.847 74.9879L167.657 76.9094C164.912 80.3864 159.653 81.1641 155.635 79.6849C153.638 78.8728 151.934 77.4809 150.744 75.691C149.554 73.901 148.934 71.7959 148.965 69.6504C148.8 67.4766 149.286 65.3029 150.361 63.4032C151.436 61.5035 153.053 59.9628 155.007 58.9754C157.023 58.0419 159.272 57.722 161.471 58.0557C163.67 58.3894 165.72 59.362 167.365 60.8511L165.832 62.9251C165.004 64.1146 163.731 62.8031 162.873 62.3914C161.599 61.8073 160.178 61.6161 158.794 61.8424C157.373 62.1347 156.094 62.8966 155.164 64.0042C154.234 65.1118 153.708 66.4998 153.673 67.9424C153.447 69.3092 153.579 70.7109 154.058 72.0119C154.536 73.3129 155.343 74.4692 156.402 75.3691C157.612 76.1752 159.052 76.5693 160.506 76.4924C161.96 76.4154 163.35 75.8714 164.467 74.9421C164.68 74.7861 164.939 74.7055 165.203 74.7134Z" fill="white"/>
<path d="M173.867 57.6182V80.0967H169.65V57.6182H173.867Z" fill="white"/>
<path d="M181.625 64.5566V80.1116H177.455V64.5566H181.625Z" fill="white"/>
<path d="M182.131 60.0428C182.131 63.2911 176.949 63.3063 176.949 60.0428C176.949 56.7793 182.131 56.7793 182.131 60.0428Z" fill="white"/>
<path d="M196.545 68.0186C195.885 68.9031 195.18 68.3541 194.444 68.0186C193.537 67.5092 192.475 67.3414 191.454 67.5459C189.338 68.0186 188.725 70.1689 188.663 72.1209C188.602 74.0729 189.016 76.2994 190.948 77.0772C191.44 77.2642 191.965 77.3512 192.492 77.3328C193.019 77.3145 193.537 77.1913 194.015 76.9704C194.766 76.6196 195.839 75.2929 196.621 76.3147L197.817 77.8397C196.737 78.978 195.35 79.7831 193.822 80.1589C192.294 80.5348 190.689 80.4655 189.2 79.9594C187.732 79.3721 186.483 78.3474 185.623 77.0259C184.764 75.7044 184.337 74.1509 184.401 72.5784C184.257 70.973 184.624 69.3634 185.45 67.9763C186.275 66.5892 187.517 65.4946 189.001 64.8466C190.46 64.2869 192.05 64.1547 193.583 64.4655C195.115 64.7762 196.526 65.5171 197.649 66.6004L196.545 68.0186Z" fill="white"/>
<path d="M204.073 57.6182V70.3824H204.763C204.973 70.3923 205.182 70.3485 205.37 70.255C205.558 70.1615 205.719 70.0216 205.837 69.8487L209.287 65.2737C209.446 65.0503 209.657 64.8694 209.904 64.747C210.15 64.6246 210.422 64.5646 210.697 64.5722H214.515L210.053 70.2147C209.724 70.6641 209.307 71.0427 208.827 71.3279C209.278 71.6698 209.654 72.1007 209.931 72.5937L214.761 80.0814H211.004C210.725 80.101 210.447 80.0446 210.198 79.9182C209.95 79.7919 209.741 79.6005 209.593 79.3647L206.067 73.6612C205.96 73.4638 205.797 73.303 205.597 73.1996C205.397 73.0962 205.171 73.0551 204.947 73.0817H204.073V80.0967H199.933V57.6182H204.073Z" fill="white"/>
<path d="M220.618 57.6182V70.3824H221.308C221.518 70.3923 221.727 70.3484 221.915 70.255C222.103 70.1615 222.263 70.0216 222.381 69.8487L225.831 65.2737C225.99 65.0503 226.202 64.8694 226.448 64.747C226.694 64.6246 226.967 64.5646 227.242 64.5722H231.06L226.567 70.2452C226.238 70.6946 225.821 71.0732 225.341 71.3584C225.792 71.7003 226.168 72.1312 226.445 72.6242L231.275 80.1119H227.533C227.255 80.1315 226.976 80.0751 226.728 79.9487C226.479 79.8224 226.27 79.631 226.123 79.3952L222.611 73.6764C222.505 73.4791 222.341 73.3182 222.142 73.2148C221.942 73.1115 221.716 73.0704 221.492 73.0969H220.618V80.1119H216.432V57.6182H220.618Z" fill="white"/>
<path d="M239.033 84.2751C238.926 84.5417 238.736 84.7671 238.49 84.9181C238.244 85.0691 237.956 85.1377 237.669 85.1139H234.602L237.515 78.8004L231.244 64.4959H234.909C235.157 64.4846 235.402 64.5505 235.611 64.6844C235.82 64.8183 235.982 65.0136 236.074 65.2431L239.049 72.7004C239.263 73.29 239.447 73.8797 239.601 74.4694C239.785 73.8746 239.999 73.2799 240.229 72.6851L242.989 65.2584C243.081 65.0351 243.239 64.8445 243.441 64.7113C243.643 64.5781 243.881 64.5083 244.124 64.5111H247.467L239.033 84.2751Z" fill="white"/>
</svg>
