<svg width="360" height="120" viewBox="0 0 360 120" fill="none" xmlns="http://www.w3.org/2000/svg">
<rect width="360" height="120" fill="#F48B30"/>
<rect width="360" height="120" stroke="white"/>
<path d="M155.094 64.8802C153.33 64.8802 152.616 63.6407 152.616 61.4911V55.5457H157.731V53.2798H152.616V49.484H150.138V61.7235C150.138 65.2094 151.387 67.146 154.519 67.146C156.066 67.146 157.334 66.6038 158.088 66.0034L157.315 64.1249C156.799 64.4735 156.066 64.8802 155.094 64.8802ZM165.78 52.97C164.035 52.97 162.37 53.4541 161.121 54.2094L161.775 56.146C162.885 55.565 163.916 55.139 165.621 55.139C168.377 55.139 168.793 56.9013 168.793 59.4383C167.862 58.7798 166.414 58.5668 165.324 58.5668C162.311 58.5668 160.051 60.1161 160.051 62.9048C160.051 65.5386 161.795 67.1073 164.333 67.1073C166.632 67.1073 167.961 66.1777 168.793 65.1319V66.8943H171.133V58.5281C171.133 55.0034 169.745 52.97 165.78 52.97ZM168.774 63.1759C168.06 63.9893 167.009 64.9383 165.185 64.9383C163.579 64.9383 162.667 64.0862 162.667 62.7886C162.667 61.22 164.154 60.5421 165.641 60.5421C166.85 60.5421 167.901 60.852 168.774 61.4524V63.1759ZM182.294 52.97C180.371 52.97 178.508 53.7833 177.556 54.8872V53.2798H175.078V72.9752H177.556V66.2745C178.547 66.9136 180.014 67.2041 181.501 67.2041C185.882 67.2041 188.757 64.0281 188.757 59.8643C188.737 55.8555 186.259 52.97 182.294 52.97ZM181.263 64.9383C179.935 64.9383 178.785 64.6865 177.536 63.8731V57.1143C178.408 56.0492 179.915 55.2358 181.561 55.2358C184.435 55.2358 186.081 57.2112 186.081 59.9612C186.101 62.8467 184.237 64.9383 181.263 64.9383ZM204.657 52.9893L200.573 53.9576C199.621 53.3186 198.412 52.9506 197.044 52.9506C193.535 52.9506 191.334 55.2164 191.334 57.9471C191.334 59.9418 192.484 61.646 194.467 62.4207C194.209 62.7305 194.09 63.1566 194.09 63.5633C194.09 63.9506 194.189 64.3766 194.427 64.6865C191.751 65.2288 189.966 66.6231 189.966 68.8309C189.966 71.7939 193 73.1689 197.064 73.1689C201.128 73.1689 204.161 71.7358 204.161 68.8309C204.161 65.8678 201.128 64.4347 197.064 64.4347C196.786 64.4347 196.509 64.4735 196.231 64.4735C196.053 64.2217 195.954 63.8925 195.954 63.5633C195.954 63.3115 195.993 63.0404 196.112 62.808C196.429 62.8467 196.727 62.8467 197.044 62.8467C200.494 62.8467 202.754 60.6583 202.754 57.9471C202.754 57.095 202.535 56.2816 202.099 55.5844L204.736 54.9453L204.657 52.9893ZM197.064 66.4488C200.038 66.4488 201.842 67.359 201.842 68.8696C201.842 70.4189 199.958 71.2323 197.064 71.2323C194.189 71.2323 192.286 70.3802 192.286 68.8696C192.286 67.359 194.09 66.4488 197.064 66.4488ZM197.044 60.9101C195.002 60.9101 193.674 59.6707 193.674 57.9664C193.674 56.2622 195.002 54.9453 197.044 54.9453C199.126 54.9453 200.414 56.2816 200.414 57.9664C200.414 59.7288 198.987 60.9101 197.044 60.9101ZM213.082 52.97C208.503 52.97 205.886 56.1266 205.886 60.0967C205.886 64.396 208.84 67.2235 213.36 67.2235C215.224 67.2235 217.246 66.6425 218.594 65.4418L217.821 63.5245C216.928 64.3379 215.342 64.9576 213.538 64.9576C210.803 64.9576 208.879 63.4471 208.661 60.8714H219.387C219.486 60.4453 219.545 59.9031 219.545 59.2446C219.545 55.4488 216.671 52.97 213.082 52.97ZM208.523 58.8766C208.8 56.7851 210.406 55.2358 212.963 55.2358C215.382 55.2358 216.869 56.6302 216.988 58.8766H208.523ZM225.215 54.8678V53.2605H222.737V66.8943H225.215V57.2305C225.751 56.2235 226.524 55.2939 228.13 55.2939C228.962 55.2939 229.339 55.4101 230.013 55.8168L230.885 53.5509C230.429 53.2217 229.854 53.0281 228.724 53.0281C226.94 53.0281 225.929 53.8414 225.215 54.8678ZM233.522 66.8943H236V53.2605H233.522V66.8943ZM234.83 46.6953C233.958 46.6953 233.225 47.2763 233.225 48.1478C233.225 49.1548 233.978 49.7164 234.83 49.7164C235.604 49.7164 236.357 49.1355 236.357 48.1478C236.337 47.2763 235.604 46.6953 234.83 46.6953ZM247.459 53.0281C245.635 53.0281 243.871 53.8995 242.899 54.9453V53.2798H240.421V66.9136H242.899V57.0756C243.791 56.0686 245.258 55.3133 246.844 55.3133C249.441 55.3133 250.79 56.6495 250.79 59.4964V66.9136H253.268V59.0316C253.268 54.7516 251.087 53.0281 247.459 53.0281ZM270 59.2059C270 55.4488 267.125 52.97 263.517 52.97C258.938 52.97 256.321 56.1266 256.321 60.0967C256.321 64.396 259.275 67.2235 263.795 67.2235C265.658 67.2235 267.68 66.6425 269.029 65.4418L268.255 63.5245C267.363 64.3379 265.777 64.9576 263.973 64.9576C261.237 64.9576 259.314 63.4471 259.096 60.8714H269.822C269.941 60.4259 270 59.8837 270 59.2059ZM258.957 58.8766C259.235 56.7851 260.841 55.2358 263.398 55.2358C265.817 55.2358 267.304 56.6302 267.423 58.8766H258.957Z" fill="white"/>
<path d="M135.943 58.8187C135.943 58.7799 135.943 58.7218 135.923 58.6831C135.765 56.0687 135.15 53.5898 134.139 51.2852C131.899 63.7764 120.718 73.2465 107.276 73.2465C102.023 73.2465 97.1061 71.794 92.9429 69.2764C93.1609 69.7412 93.3988 70.206 93.6566 70.6514C93.6566 70.6514 93.6566 70.6514 93.6566 70.6708C93.9143 71.0968 94.172 71.5229 94.4496 71.9489C94.4694 71.9683 94.4694 71.9877 94.4892 72.007C95.0443 72.8398 95.6589 73.6144 96.3131 74.3697C96.3528 74.4085 96.3726 74.4472 96.4122 74.4859C97.0665 75.2218 97.7802 75.8996 98.5137 76.5387C98.5732 76.5775 98.6128 76.6162 98.6723 76.6743C99.4058 77.294 100.199 77.875 101.012 78.3979C101.071 78.4366 101.15 78.4754 101.23 78.5335C101.606 78.7658 101.983 78.9982 102.38 79.2113C102.419 79.2306 102.459 79.25 102.499 79.2887C102.915 79.5211 103.351 79.7342 103.787 79.9278C103.866 79.9665 103.946 80.0053 104.025 80.044C104.402 80.2183 104.778 80.3732 105.175 80.5088C105.254 80.5475 105.353 80.5669 105.433 80.6056C105.889 80.7606 106.345 80.9155 106.801 81.0511C106.88 81.0704 106.959 81.0898 107.058 81.1285C107.455 81.2447 107.851 81.3415 108.248 81.4384C108.367 81.4577 108.466 81.4965 108.585 81.5158C109.061 81.6127 109.536 81.7095 110.012 81.7676C110.072 81.7676 110.131 81.787 110.21 81.787C110.647 81.8451 111.063 81.8838 111.499 81.9225C111.638 81.9419 111.757 81.9419 111.896 81.9419C112.391 81.9806 112.887 82 113.402 82C125.872 82 135.983 72.162 135.983 60.0194C135.963 59.5739 135.963 59.206 135.943 58.8187ZM130.412 45.5335C129.044 44.0035 127.438 42.6479 125.674 41.5246C121.887 46.0563 116.098 48.9613 109.616 48.9613C104.878 48.9613 100.516 47.412 97.0268 44.7975C93.8152 48.1285 91.6344 52.3891 91 57.1532C95.2227 59.8063 100.238 61.3363 105.631 61.3363C116.713 61.3363 126.249 54.8486 130.412 45.5335ZM121.689 39.5299C119.112 38.5423 116.317 38 113.382 38C110.052 38 106.88 38.7165 104.045 39.9754C106.622 40.7694 109.358 41.2148 112.213 41.2148C115.543 41.1954 118.735 40.5951 121.689 39.5299Z" fill="white"/>
</svg>
